<svg xmlns="http://www.w3.org/2000/svg" width="439" height="439" viewBox="0 0 439 439" fill="none"><path d="M92.8264 152.18L94.7362 151.086L94.9044 147.164L96.0844 146.486C96.4338 146.286 96.5433 145.859 96.3329 145.528C96.1225 145.197 95.6732 145.094 95.3238 145.294L94.9745 145.495L95.1338 141.931L96.1663 141.337C96.5157 141.137 96.6252 140.71 96.4148 140.379C96.2044 140.048 95.7551 139.945 95.4057 140.145L95.196 140.261L95.3428 136.861C95.3428 136.861 97.2016 135.559 99.3713 134.103C101.541 132.646 101.976 130.76 102.072 130.058C101.369 129.811 99.4127 129.297 97.0408 130.445C94.6688 131.585 92.5916 132.541 92.5916 132.541L89.3535 131.084L89.5632 130.968C89.9126 130.768 90.0222 130.341 89.8117 130.01C89.6013 129.679 89.152 129.576 88.8026 129.776L87.7701 130.369L84.3816 128.84L84.731 128.64C85.0803 128.439 85.1899 128.013 84.9795 127.681C84.769 127.35 84.3197 127.247 83.9703 127.448L82.7903 128.126L79.0613 126.439L77.1515 127.533L86.8177 135.967L77.7341 141.974L73.3776 139.487L72.2596 140.127L76.4373 144.747L78.7906 150.415L79.9085 149.776L79.6278 144.954L89.4559 140.118L92.8264 152.18Z" fill="black"></path><path fill-rule="evenodd" clip-rule="evenodd" d="M68.5585 151.653C67.3929 152.95 66.3056 154.318 65.3006 155.745L64.6832 155.31C65.7051 153.859 66.8109 152.468 67.9968 151.149L68.5585 151.653ZM74.3119 146.336C73.6179 146.865 72.9419 147.416 72.2845 147.987L71.7893 147.417C72.4587 146.835 73.1471 146.274 73.854 145.735L74.3119 146.336ZM62.5384 160.188C61.7033 161.719 60.9539 163.298 60.2941 164.915L59.5949 164.629C60.2653 162.987 61.0268 161.382 61.8755 159.826L62.5384 160.188ZM58.5878 169.862C58.1108 171.542 57.7273 173.247 57.4409 174.968L56.696 174.844C56.987 173.095 57.3768 171.362 57.8613 169.656L58.5878 169.862ZM56.8769 180.169C56.7887 181.912 56.8019 183.659 56.9203 185.398L56.1669 185.45C56.0464 183.68 56.033 181.903 56.1227 180.131L56.8769 180.169ZM57.5941 190.582C57.7598 191.437 57.9526 192.288 58.173 193.132L58.173 193.132C58.3931 193.977 58.64 194.813 58.9128 195.64L58.1956 195.876C57.9179 195.034 57.6664 194.183 57.4423 193.323C57.2178 192.463 57.0215 191.597 56.8528 190.726L57.5941 190.582ZM60.8556 200.493C61.6015 202.069 62.4427 203.6 63.3705 205.078L62.7309 205.48C61.7876 203.977 60.932 202.42 60.173 200.816L60.8556 200.493ZM66.4013 209.343C67.491 210.704 68.6581 212.006 69.8941 213.239L69.3607 213.774C68.105 212.521 66.919 211.198 65.8117 209.814L66.4013 209.343ZM73.7977 216.724C75.1626 217.813 76.5874 218.826 78.0636 219.755L77.6614 220.394C76.1613 219.45 74.7135 218.421 73.3268 217.314L73.7977 216.724ZM82.6427 222.284C84.2164 223.039 85.8327 223.702 87.4829 224.265L87.2391 224.98C85.5601 224.407 83.9161 223.733 82.3161 222.965L82.6427 222.284ZM92.5245 225.647C93.377 225.824 94.2358 225.975 95.0997 226.098L95.0999 226.098C96.0135 226.229 96.9267 226.331 97.8396 226.407L97.7771 227.159C96.8498 227.082 95.9218 226.979 94.9931 226.846C94.1131 226.721 93.2385 226.567 92.3705 226.386L92.5245 225.647ZM103.352 226.562C105.188 226.518 107.024 226.384 108.86 226.176L108.945 226.927C107.089 227.136 105.231 227.272 103.37 227.317L103.352 226.562ZM114.33 225.359C116.137 225.028 117.943 224.643 119.749 224.219L119.922 224.954C118.105 225.38 116.287 225.768 114.466 226.102L114.33 225.359ZM125.125 222.859C126.909 222.381 128.692 221.881 130.476 221.375L130.682 222.101C128.897 222.608 127.109 223.109 125.321 223.588L125.125 222.859ZM135.822 219.855C137.611 219.352 139.4 218.857 141.191 218.389L141.382 219.119C139.598 219.586 137.813 220.079 136.027 220.582L135.822 219.855ZM146.602 217.066C148.424 216.657 150.248 216.292 152.073 215.986L152.198 216.73C150.388 217.034 148.578 217.397 146.767 217.802L146.602 217.066ZM157.61 215.257C159.469 215.086 161.33 214.993 163.194 214.997L163.193 215.752C161.355 215.748 159.517 215.84 157.679 216.009L157.61 215.257ZM168.782 215.316C169.706 215.422 170.63 215.556 171.555 215.72C172.555 215.898 173.544 216.109 174.524 216.35L174.343 217.083C173.379 216.846 172.405 216.638 171.423 216.464C170.514 216.302 169.605 216.17 168.696 216.066L168.782 215.316ZM180.314 218.131C182.202 218.822 184.062 219.602 185.902 220.444L185.588 221.131C183.762 220.296 181.921 219.523 180.054 218.84L180.314 218.131ZM191.323 223.1C193.106 224.021 194.877 224.975 196.644 225.932L196.284 226.596C194.518 225.639 192.752 224.689 190.976 223.771L191.323 223.1ZM201.939 228.788C203.716 229.732 205.496 230.652 207.288 231.52L206.958 232.2C205.155 231.326 203.367 230.401 201.585 229.455L201.939 228.788ZM212.759 233.966C214.618 234.717 216.496 235.386 218.402 235.942L218.19 236.667C216.256 236.103 214.354 235.425 212.476 234.666L212.759 233.966ZM224.222 237.248C225.2 237.399 226.187 237.515 227.184 237.592C228.082 237.661 228.975 237.699 229.862 237.706L229.856 238.461C228.951 238.454 228.041 238.416 227.126 238.345L227.126 238.345C226.109 238.266 225.103 238.148 224.107 237.995L224.222 237.248ZM235.204 237.38C236.98 237.149 238.733 236.8 240.459 236.343L240.652 237.074C238.895 237.538 237.111 237.893 235.301 238.128L235.204 237.38ZM310.947 164.281C312.26 163.028 313.613 161.819 315.013 160.661L315.495 161.243C314.109 162.389 312.769 163.586 311.468 164.827L310.947 164.281ZM303.535 172.235C304.703 170.844 305.899 169.482 307.13 168.157L307.683 168.67C306.462 169.986 305.274 171.338 304.114 172.721L303.535 172.235ZM296.875 180.813C297.942 179.347 299.025 177.896 300.13 176.468L300.727 176.93C299.628 178.351 298.549 179.796 297.486 181.257L296.875 180.813ZM319.343 157.358C320.085 156.838 320.84 156.332 321.608 155.841C322.376 155.351 323.157 154.879 323.95 154.426L324.325 155.081C323.542 155.528 322.772 155.994 322.015 156.478C321.255 156.963 320.51 157.462 319.776 157.976L319.343 157.358ZM290.659 189.703C291.677 188.209 292.699 186.717 293.732 185.236L294.351 185.668C293.321 187.146 292.3 188.635 291.283 190.128L290.659 189.703ZM245.551 234.666C247.206 234.013 248.834 233.266 250.433 232.434L250.781 233.104C249.16 233.947 247.509 234.705 245.828 235.368L245.551 234.666ZM328.827 151.946C330.492 151.2 332.194 150.535 333.924 149.957L334.164 150.674C332.458 151.243 330.778 151.899 329.136 152.635L328.827 151.946ZM284.567 198.662C285.588 197.178 286.603 195.685 287.618 194.188L288.243 194.612C287.228 196.109 286.212 197.604 285.189 199.09L284.567 198.662ZM279.884 205.291C280.414 204.565 280.941 203.833 281.465 203.098L282.08 203.536C281.555 204.274 281.026 205.007 280.494 205.737C279.963 206.463 279.423 207.188 278.873 207.909L278.272 207.452C278.819 206.734 279.356 206.013 279.884 205.291ZM255.082 229.738C256.581 228.778 258.051 227.748 259.49 226.659L259.946 227.261C258.492 228.361 257.006 229.402 255.489 230.374L255.082 229.738ZM271.365 215.73C272.582 214.403 273.765 213.047 274.912 211.67L275.492 212.154C274.338 213.539 273.147 214.904 271.922 216.24L271.365 215.73ZM263.667 223.263C265.016 222.089 266.335 220.866 267.621 219.605L268.149 220.145C266.854 221.415 265.524 222.648 264.162 223.832L263.667 223.263ZM339.197 148.491C340.983 148.093 342.786 147.79 344.597 147.588L344.68 148.339C342.898 148.537 341.122 148.836 339.362 149.228L339.197 148.491ZM350.066 147.295C351.896 147.304 353.722 147.424 355.534 147.66L355.436 148.409C353.656 148.177 351.862 148.059 350.062 148.05L350.066 147.295ZM175.326 337.772C174.633 337.157 173.867 336.613 173.023 336.155L173.383 335.491C174.279 335.978 175.092 336.555 175.827 337.207L175.326 337.772ZM360.912 148.725C361.793 148.962 362.668 149.23 363.536 149.528C364.399 149.826 365.251 150.158 366.09 150.522L365.789 151.214C364.968 150.858 364.134 150.533 363.29 150.242C362.439 149.949 361.581 149.687 360.716 149.454L360.912 148.725ZM180.374 347.721C180.04 345.805 179.482 343.962 178.674 342.293L179.354 341.964C180.197 343.706 180.773 345.618 181.118 347.591L180.374 347.721ZM370.934 153.072C372.481 154.039 373.96 155.12 375.354 156.299L374.866 156.876C373.5 155.72 372.05 154.66 370.534 153.713L370.934 153.072ZM180.486 356.286C180.616 355.351 180.701 354.395 180.739 353.43L181.493 353.46C181.455 354.449 181.367 355.43 181.234 356.39L181.234 356.391C181.098 357.362 180.928 358.326 180.734 359.285L179.994 359.135C180.185 358.189 180.353 357.24 180.486 356.286ZM379.269 160.123C380.484 161.494 381.596 162.95 382.59 164.475L381.957 164.888C380.984 163.394 379.895 161.968 378.704 160.624L379.269 160.123ZM178.238 366.25C178.37 365.759 178.502 365.269 178.632 364.78L179.362 364.974C179.23 365.469 179.097 365.961 178.965 366.454C178.592 367.839 178.22 369.219 177.879 370.605L177.146 370.425C177.489 369.03 177.864 367.638 178.238 366.25ZM175.688 379.105C175.749 378.121 175.853 377.145 175.991 376.176L176.738 376.282C176.603 377.234 176.501 378.19 176.442 379.151L176.065 379.128L176.442 379.151C176.384 380.089 176.372 381.021 176.402 381.947L175.647 381.972C175.616 381.022 175.629 380.066 175.688 379.105ZM385.212 169.284C385.959 170.958 386.566 172.689 387.015 174.46L386.284 174.646C385.845 172.918 385.252 171.228 384.523 169.592L385.212 169.284ZM178.067 393.111C177.345 391.342 176.771 389.517 176.361 387.651L177.099 387.489C177.499 389.311 178.06 391.095 178.767 392.826L178.067 393.111ZM387.875 179.878C387.934 180.788 387.95 181.704 387.92 182.624C387.89 183.556 387.818 184.478 387.706 185.389L386.956 185.297C387.066 184.408 387.136 183.509 387.165 182.6C387.194 181.704 387.179 180.812 387.122 179.926L387.875 179.878ZM327.118 241.348C326.397 241.961 325.691 242.589 324.998 243.229L324.486 242.675C325.186 242.028 325.9 241.393 326.629 240.773L326.873 241.06L326.629 240.773C327.33 240.176 328.041 239.594 328.762 239.026L329.229 239.619C328.516 240.181 327.812 240.757 327.118 241.348ZM320.992 247.239C319.708 248.628 318.477 250.064 317.298 251.542L316.708 251.072C317.898 249.579 319.14 248.129 320.437 246.727L320.992 247.239ZM338.203 233.385C336.654 234.352 335.126 235.346 333.628 236.38L333.199 235.759C334.708 234.717 336.246 233.716 337.803 232.745L338.203 233.385ZM313.913 256.096C312.837 257.648 311.809 259.237 310.827 260.859L310.181 260.467C311.171 258.833 312.207 257.231 313.293 255.665L313.913 256.096ZM347.652 227.841C346.059 228.741 344.471 229.645 342.895 230.564L342.514 229.911C344.095 228.99 345.687 228.084 347.281 227.184L347.652 227.841ZM308.023 265.796C307.134 267.465 306.289 269.16 305.483 270.877L304.799 270.556C305.61 268.828 306.462 267.122 307.356 265.441L308.023 265.796ZM386.552 190.807C386.016 192.571 385.336 194.289 384.533 195.958L383.852 195.63C384.64 193.994 385.306 192.312 385.83 190.587L386.552 190.807ZM357.181 222.384C355.608 223.32 354.02 224.235 352.429 225.14L352.056 224.484C353.645 223.58 355.227 222.667 356.796 221.735L357.181 222.384ZM303.189 276.075C302.462 277.825 301.774 279.592 301.12 281.37L300.411 281.109C301.068 279.322 301.761 277.546 302.491 275.786L303.189 276.075ZM183.951 402.872C182.733 401.395 181.624 399.838 180.642 398.215L181.287 397.824C182.251 399.415 183.338 400.942 184.533 402.392L183.951 402.872ZM364.159 217.98C363.399 218.495 362.633 219 361.862 219.496L361.453 218.861C362.22 218.368 362.981 217.866 363.735 217.355C364.483 216.847 365.228 216.324 365.965 215.786L366.41 216.396C365.665 216.939 364.914 217.467 364.159 217.98ZM381.804 200.763C380.801 202.292 379.7 203.771 378.518 205.197L377.936 204.716C379.102 203.309 380.186 201.852 381.173 200.349L381.804 200.763ZM374.799 209.269C373.5 210.565 372.142 211.808 370.741 212.995L370.253 212.419C371.639 211.244 372.982 210.015 374.266 208.734L374.799 209.269ZM299.259 286.742C298.964 287.644 298.678 288.548 298.4 289.452C298.121 290.359 297.85 291.267 297.585 292.178L296.86 291.966C297.126 291.053 297.398 290.141 297.678 289.23C297.958 288.322 298.245 287.414 298.541 286.508L299.259 286.742ZM296.066 297.662C295.582 299.496 295.119 301.336 294.673 303.181L293.939 303.004C294.387 301.155 294.85 299.309 295.335 297.469L296.066 297.662ZM192.314 410.61C190.755 409.51 189.27 408.309 187.875 407.021L188.387 406.466C189.758 407.732 191.218 408.912 192.75 409.993L192.314 410.61ZM293.38 308.727C292.962 310.579 292.556 312.434 292.157 314.291L291.419 314.132C291.819 312.273 292.225 310.416 292.644 308.561L293.38 308.727ZM290.44 322.425C290.229 323.432 290.019 324.439 289.807 325.445L289.068 325.29C289.279 324.288 289.488 323.286 289.698 322.284C289.877 321.427 290.057 320.569 290.237 319.711L290.976 319.866C290.797 320.718 290.619 321.571 290.44 322.425ZM202.406 415.899C200.618 415.25 198.872 414.476 197.184 413.59L197.535 412.921C199.193 413.792 200.908 414.552 202.664 415.189L202.406 415.899ZM288.623 331.023C288.222 332.882 287.814 334.739 287.394 336.593L286.657 336.426C287.077 334.575 287.485 332.721 287.885 330.864L288.623 331.023ZM210.719 417.943C209.774 417.819 208.833 417.659 207.9 417.464L208.054 416.725C208.969 416.916 209.891 417.073 210.817 417.194C211.753 417.316 212.69 417.409 213.626 417.471L213.575 418.225C212.624 418.161 211.671 418.067 210.719 417.943ZM286.091 342.149C285.866 343.073 285.637 343.997 285.403 344.919C285.169 345.84 284.93 346.761 284.685 347.681L283.955 347.487C284.2 346.57 284.438 345.651 284.671 344.733C284.904 343.813 285.133 342.893 285.357 341.97L286.091 342.149ZM283.145 353.18C282.606 355.005 282.041 356.824 281.445 358.634L280.728 358.397C281.321 356.596 281.884 354.785 282.42 352.966L283.145 353.18ZM225.006 417.597C223.122 417.925 221.221 418.146 219.311 418.253L219.268 417.499C221.149 417.394 223.021 417.176 224.877 416.853L225.006 417.597ZM279.564 364.029C278.903 365.818 278.209 367.593 277.477 369.349L276.78 369.059C277.508 367.312 278.198 365.547 278.856 363.767L279.564 364.029ZM236.007 414.444C234.229 415.157 232.421 415.781 230.59 416.308L230.381 415.582C232.187 415.062 233.971 414.447 235.726 413.743L236.007 414.444ZM275.16 374.576C274.346 376.303 273.49 378.007 272.59 379.685L271.924 379.328C272.818 377.662 273.668 375.97 274.477 374.254L275.16 374.576ZM246.183 409.219C244.567 410.242 242.909 411.192 241.215 412.064L240.87 411.392C242.543 410.531 244.182 409.592 245.78 408.581L246.183 409.219ZM269.745 384.649C268.748 386.276 267.703 387.873 266.606 389.435L265.988 389.001C267.076 387.452 268.112 385.869 269.101 384.255L269.745 384.649ZM255.298 402.313C253.879 403.586 252.406 404.803 250.886 405.957L250.429 405.355C251.933 404.214 253.39 403.011 254.794 401.751L255.298 402.313ZM263.161 394.007C262.561 394.748 261.948 395.479 261.32 396.201L261.035 395.953L261.32 396.201C260.695 396.919 260.054 397.626 259.397 398.32L258.849 397.801C259.498 397.115 260.132 396.416 260.75 395.705C261.372 394.991 261.979 394.266 262.573 393.532L263.161 394.007Z" fill="black"></path></svg>